<svg id="_x31__x2C_5" enable-background="new 0 0 36 36" height="512" viewBox="0 0 36 36" width="512" xmlns="http://www.w3.org/2000/svg"><g><path d="m8.377 4.167c6.917 0 11.667-3.583 15-3.583s10.333 1.916 10.333 17.249-9.417 17.583-13.083 17.583c-17.167.001-24.5-31.249-12.25-31.249z" fill="#efefef"/></g><g><path d="m29.5 11c-.827 0-1.5-.673-1.5-1.5s.673-1.5 1.5-1.5 1.5.673 1.5 1.5-.673 1.5-1.5 1.5zm0-2c-.275 0-.5.224-.5.5s.225.5.5.5.5-.224.5-.5-.225-.5-.5-.5z" fill="#a4afc1"/></g><g><path d="m20.277 26.25h-11.527c-1.1 0-2-.9-2-2v-15.5c0-1.1.9-2 2-2h11.5c1.1 0 2 .9 2 2l.027 15.497c.001 1.105-.895 2.003-2 2.003z" fill="#f3f3f1"/></g><g><circle cx="14.5" cy="11" fill="#2fdf84" r="1.25"/></g><g><path d="m17.75 18v-1.25c0-1.105-.895-2-2-2h-2.5c-1.105 0-2 .895-2 2v1.25z" fill="#2fdf84"/></g><g><path d="m21.601 28.58-3.351.67.67-3.351 7.372-7.372c.37-.37.97-.37 1.34 0l1.34 1.34c.37.37.37.97 0 1.34z" fill="#2fdf84"/></g><g><path d="m9 24.25v-15.5c0-1.1.9-2 2-2h-2.25c-1.1 0-2 .9-2 2v15.5c0 1.1.9 2 2 2h2.25c-1.1 0-2-.9-2-2z" fill="#d5dbe1"/></g><g><path d="m15.5 11c0-.19.049-.365.125-.526-.2-.425-.625-.724-1.125-.724-.69 0-1.25.56-1.25 1.25s.56 1.25 1.25 1.25c.5 0 .925-.299 1.125-.724-.076-.161-.125-.336-.125-.526z" fill="#00b871"/></g><g><path d="m15.5 14.75h-2.25c-1.105 0-2 .895-2 2v1.25h2.25v-1.25c0-1.105.895-2 2-2z" fill="#00b871"/></g><g><path d="m21.17 25.899 6.917-6.917-.455-.455c-.37-.37-.97-.37-1.34 0l-7.372 7.372-.67 3.351 2.344-.469z" fill="#00b871"/></g><g><path d="m18.25 30c-.197 0-.389-.078-.53-.22-.178-.177-.254-.432-.205-.677l.67-3.351c.029-.146.101-.279.205-.383l7.372-7.372c.662-.661 1.738-.661 2.4 0l1.341 1.341c.662.662.662 1.739 0 2.401l-7.372 7.372c-.104.105-.238.176-.383.205l-3.351.67c-.049.009-.098.014-.147.014zm1.36-3.731-.404 2.025 2.024-.405 7.212-7.211c.065-.066.065-.214 0-.28l-1.341-1.34c-.076-.076-.203-.077-.279 0z"/></g><g><path d="m10 19.5h9v1.5h-9z"/></g><g><path d="m10 22.5h8v1.5h-8z"/></g><g><path d="m14.5 13c-1.103 0-2-.897-2-2s.897-2 2-2 2 .897 2 2-.897 2-2 2zm0-2.5c-.275 0-.5.224-.5.5s.225.5.5.5.5-.224.5-.5-.225-.5-.5-.5z"/></g><g><path d="m18.5 18h-1.5v-1.25c0-.689-.561-1.25-1.25-1.25h-2.5c-.689 0-1.25.561-1.25 1.25v1.25h-1.5v-1.25c0-1.517 1.233-2.75 2.75-2.75h2.5c1.517 0 2.75 1.233 2.75 2.75z"/></g><g><path d="m16 27h-7.25c-1.517 0-2.75-1.233-2.75-2.75v-15.5c0-1.517 1.233-2.75 2.75-2.75h11.5c1.517 0 2.75 1.233 2.75 2.75v9.25h-1.5v-9.25c0-.689-.561-1.25-1.25-1.25h-11.5c-.689 0-1.25.561-1.25 1.25v15.5c0 .689.561 1.25 1.25 1.25h7.25z"/></g></svg>