<?xml version="1.0" encoding="UTF-8"?>
<!DOCTYPE svg PUBLIC "-//W3C//DTD SVG 1.1//EN" "http://www.w3.org/Graphics/SVG/1.1/DTD/svg11.dtd">
<!-- Creator: CorelDRAW X8 -->
<svg xmlns="http://www.w3.org/2000/svg" xml:space="preserve" width="1.66666in" height="1.66666in" version="1.1" shape-rendering="geometricPrecision" text-rendering="geometricPrecision" image-rendering="optimizeQuality" fill-rule="evenodd" clip-rule="evenodd"
viewBox="0 0 1667 1667"
 xmlns:xlink="http://www.w3.org/1999/xlink"
 enable-background="new 0 0 36 36">
 <g id="Camada_x0020_1">
  <metadata id="CorelCorpID_0Corel-Layer"/>
  <g id="_2373850209648">
   <path fill="#F3F3F1" d="M972 557l-108 0 0 54c0,29 -24,53 -53,53l-297 0c-30,0 -54,-24 -54,-53l0 -54 -108 0c-59,0 -107,48 -107,107l0 674c0,59 48,108 107,108l620 0c60,0 108,-49 108,-108l0 -674c0,-59 -48,-107 -108,-107z"/>
  </g>
  <g id="_2373850209904">
   <path fill="#2D8C94" d="M864 503l0 108c0,29 -24,53 -53,53l-297 0c-30,0 -54,-24 -54,-53l0 -108 94 0c0,-60 49,-108 108,-108 60,0 108,48 108,108l94 0z"/>
  </g>
  <g id="_2373850209296">
   <path fill="#2D8C94" d="M1174 1607c0,0 283,-120 283,-360 0,-97 0,-217 0,-217l-283 -96 -283 96 0 217c0,240 283,360 283,360z"/>
  </g>
  <g id="_2373850209360">
   <path fill="#D5DBE1" d="M986 611l0 -53c-5,-1 -9,-1 -14,-1l-108 0 0 54c0,29 -24,53 -53,53l121 0c29,0 54,-24 54,-53z"/>
  </g>
  <g id="_2373850210800">
   <path fill="#D5DBE1" d="M366 1338l0 -674c0,-54 41,-99 94,-106l0 -1 -108 0c-59,0 -107,48 -107,107l0 674c0,59 48,108 107,108l122 0c-60,0 -108,-49 -108,-108l0 0z"/>
  </g>
  <g id="_2373850209008">
   <path fill="#036873" d="M582 611l0 -108 94 0c0,-37 19,-70 47,-89 -17,-12 -38,-19 -61,-19 -59,0 -108,48 -108,108l-94 0 0 108c0,29 24,53 54,53l121 0c-29,0 -53,-24 -53,-53l0 0z"/>
  </g>
  <g id="_2373850240624">
   <path fill="#036873" d="M1013 1247c0,-145 0,-217 0,-217l222 -75 -61 -21 -283 96 0 217c0,240 283,360 283,360 0,0 26,-10 61,-32 -83,-50 -222,-159 -222,-328l0 0z"/>
  </g>
  <g id="_2373850241392">
   <path fill="black" d="M1174 1648c-5,0 -10,-1 -16,-3 -12,-6 -307,-134 -307,-398l0 -217c0,-17 11,-32 27,-38l283 -96c9,-3 18,-3 26,0l283 96c17,6 28,21 28,38l0 217c0,264 -295,392 -308,398 -5,2 -10,3 -16,3l0 0zm-242 -589l0 188c0,179 186,287 242,316 57,-29 243,-137 243,-316l0 -188 -243 -82 -242 82z"/>
  </g>
  <g id="_2373850240496">
   <path fill="black" d="M1161 1405c-11,0 -21,-4 -29,-11l-108 -108 58 -57 75 74 133 -178 65 49 -162 215c-7,10 -18,15 -29,16 -1,0 -2,0 -3,0l0 0z"/>
  </g>
  <g id="_2373850241200">
   <path fill="black" d="M775 1486l-423 0c-81,0 -148,-66 -148,-148l0 -674c0,-81 67,-148 148,-148l102 0 0 81 -102 0c-37,0 -67,30 -67,67l0 674c0,37 30,67 67,67l423 0 0 81z"/>
  </g>
  <g id="_2373850239504">
   <path fill="black" d="M1120 795l-80 0 0 -131c0,-37 -31,-67 -68,-67l-101 0 0 -81 101 0c82,0 148,67 148,148l0 131z"/>
  </g>
  <g id="_2373850238192">
   <path fill="black" d="M811 705l-297 0c-52,0 -94,-42 -94,-94l0 -108c0,-23 18,-41 40,-41l60 0c17,-62 75,-108 142,-108 68,0 125,46 143,108l59 0c23,0 41,18 41,41l0 108c0,52 -42,94 -94,94l0 0zm-310 -162l0 68c0,7 6,13 13,13l297 0c7,0 13,-6 13,-13l0 -68 -54 0c-22,0 -40,-18 -40,-40 0,-37 -31,-68 -68,-68 -37,0 -67,31 -67,68 0,22 -18,40 -41,40l-53 0z"/>
  </g>
  <g id="_2373850239088">
   <polygon fill="black" points="406,786 918,786 918,866 406,866 "/>
  </g>
  <g id="_2373850238064">
   <polygon fill="black" points="406,947 736,947 736,1028 406,1028 "/>
  </g>
  <g id="_2373850238032">
   <polygon fill="black" points="406,1109 730,1109 730,1190 406,1190 "/>
  </g>
  <g id="_2373850239440">
   <polygon fill="#A4AFC1" points="642,31 696,31 696,139 642,139 "/>
  </g>
  <g id="_2373850236976">
   <polygon fill="#A4AFC1" points="453,193 561,193 561,247 453,247 "/>
  </g>
  <g id="_2373850237200">
   <polygon fill="#A4AFC1" points="763,193 871,193 871,247 763,247 "/>
  </g>
  <g id="_2373850235920">
   <path fill="#A4AFC1" d="M1550 907c-44,0 -80,-36 -80,-81 0,-44 36,-81 80,-81 45,0 81,37 81,81 0,45 -36,81 -81,81zm0 -108c-14,0 -27,12 -27,27 0,15 13,27 27,27 15,0 27,-12 27,-27 0,-15 -12,-27 -27,-27z"/>
  </g>
 </g>
</svg>
