<svg id="line" enable-background="new 0 0 36 36" height="512" viewBox="0 0 36 36" width="512" xmlns="http://www.w3.org/2000/svg"><path d="m31.833 8.377c0 6.917 3.583 11.667 3.583 15s-1.916 10.333-17.249 10.333-17.584-9.417-17.584-13.083c0-17.167 31.25-24.5 31.25-12.25z" fill="#efefef"/><path d="m30.5 8c-.827 0-1.5-.673-1.5-1.5s.673-1.5 1.5-1.5 1.5.673 1.5 1.5-.673 1.5-1.5 1.5zm0-2c-.275 0-.5.225-.5.5s.225.5.5.5.5-.225.5-.5-.225-.5-.5-.5z" fill="#a4afc1"/><path d="m20.25 26.25h-11.75c-1.105 0-2-.895-2-2v-15.5c0-1.105.895-2 2-2h11.75c1.105 0 2 .895 2 2v15.5c0 1.105-.895 2-2 2z" fill="#f3f3f1"/><path d="m24 29.25s5.25-2.232 5.25-6.696c0-1.786 0-4.018 0-4.018l-5.25-1.786-5.25 1.786v4.018c0 4.464 5.25 6.696 5.25 6.696z" fill="#2fdf84"/><path d="m21 22.554c0-2.679 0-4.018 0-4.018l4.125-1.403-1.125-.383-5.25 1.786v4.018c0 4.464 5.25 6.696 5.25 6.696s.471-.203 1.125-.599c-1.542-.934-4.125-2.963-4.125-6.097z" fill="#00b871"/><path d="m8.75 24.25v-15.5c0-1.105.895-2 2-2h-2.25c-1.105 0-2 .895-2 2v15.5c0 1.105.895 2 2 2h2.25c-1.105 0-2-.895-2-2z" fill="#d5dbe1"/><path d="m24 30c-.1 0-.2-.02-.294-.06-.232-.099-5.706-2.483-5.706-7.386v-4.018c0-.321.204-.606.509-.71l5.25-1.786c.156-.053.326-.053.482 0l5.25 1.786c.305.104.509.389.509.71v4.018c0 4.903-5.474 7.287-5.706 7.387-.094.039-.194.059-.294.059zm-4.5-10.927v3.48c0 3.333 3.456 5.337 4.5 5.865 1.044-.528 4.5-2.532 4.5-5.865v-3.48l-4.5-1.531z"/><path d="m23.75 25.5c-.198 0-.39-.078-.53-.22l-2-2 1.061-1.061 1.389 1.389 2.48-3.308 1.199.9-3 4c-.13.174-.329.282-.547.298-.017.001-.034.002-.052.002z"/><path d="m16.59 27h-7.84c-1.517 0-2.75-1.233-2.75-2.75v-15.5c0-1.517 1.233-2.75 2.75-2.75h11.5c1.517 0 2.75 1.233 2.75 2.75v5.43h-1.5v-5.43c0-.689-.561-1.25-1.25-1.25h-11.5c-.689 0-1.25.561-1.25 1.25v15.5c0 .689.561 1.25 1.25 1.25h7.84z"/><path d="m9.75 14h9.5v1.5h-9.5z"/><path d="m9.75 18h5.5v1.5h-5.5z"/><path d="m9.75 10h4.5v1.5h-4.5z"/></svg>