<svg id="Capa_1" enable-background="new 0 0 512 512" height="512" viewBox="0 0 512 512" width="512" xmlns="http://www.w3.org/2000/svg"><g><path d="m346 332h30v30h-30z"/><path d="m286 512c49.626 0 90-40.374 90-90v-1.509c34.192-6.968 60-37.271 60-73.491 0-41.355-33.645-75-75-75s-75 33.645-75 75c0 36.219 25.808 66.522 60 73.491v1.509c0 33.084-26.916 60-60 60s-60-26.916-60-60v-150.838c67.406-7.486 120-64.793 120-134.162v-92c0-24.813-20.187-45-45-45h-45v30h45c8.271 0 15 6.729 15 15v92c0 57.897-47.103 105-105 105s-105-47.103-105-105v-92c0-8.271 6.729-15 15-15h45v-30h-45c-24.813 0-45 20.187-45 45v92c0 69.369 52.594 126.676 120 134.162v150.838c0 49.626 40.374 90 90 90zm30-165c0-24.813 20.187-45 45-45s45 20.187 45 45-20.187 45-45 45-45-20.187-45-45z"/></g></svg>